<svg width="48" height="49" viewBox="0 0 48 49" fill="none" xmlns="http://www.w3.org/2000/svg">
<g id="material-symbols:admin-panel-settings-outline-rounded">
<path id="Vector" d="M34 34.5C34.8333 34.5 35.542 34.2087 36.126 33.626C36.71 33.0434 37.0013 32.3347 37 31.5C37 30.6667 36.7087 29.9587 36.126 29.376C35.5433 28.7934 34.8347 28.5014 34 28.5C33.1667 28.5 32.4587 28.792 31.876 29.376C31.2933 29.96 31.0013 30.668 31 31.5C31 32.3334 31.292 33.042 31.876 33.626C32.46 34.21 33.168 34.5014 34 34.5ZM34 40.5C35.0333 40.5 35.9833 40.258 36.85 39.774C37.7167 39.29 38.4167 38.6487 38.95 37.85C38.2167 37.4167 37.4333 37.0834 36.6 36.85C35.7667 36.6167 34.9 36.5 34 36.5C33.1 36.5 32.2333 36.6167 31.4 36.85C30.5667 37.0834 29.7833 37.4167 29.05 37.85C29.5833 38.65 30.2833 39.292 31.15 39.7761C32.0167 40.2601 32.9667 40.5014 34 40.5ZM24 44.5C19.3667 43.3334 15.5413 40.6747 12.524 36.524C9.50667 32.3734 7.99867 27.7654 8 22.7001V13.25C8 12.4167 8.242 11.6667 8.726 11C9.21 10.3334 9.83467 9.85005 10.6 9.55005L22.6 5.05005C23.0667 4.88338 23.5333 4.80005 24 4.80005C24.4667 4.80005 24.9333 4.88338 25.4 5.05005L37.4 9.55005C38.1667 9.85005 38.792 10.3334 39.276 11C39.76 11.6667 40.0013 12.4167 40 13.25V21.85C39.3667 21.5834 38.7167 21.3414 38.05 21.1241C37.3833 20.9067 36.7 20.7494 36 20.652V13.3L24 8.80005L12 13.3V22.7001C12 24.2667 12.2087 25.8334 12.626 27.4C13.0433 28.9667 13.6267 30.4587 14.376 31.876C15.1253 33.292 16.0333 34.6 17.1 35.8C18.1667 37 19.35 38 20.65 38.8C21.0167 39.8667 21.5 40.8834 22.1 41.85C22.7 42.8167 23.3833 43.6834 24.15 44.4501C24.1167 44.4501 24.092 44.4587 24.076 44.4761C24.06 44.4934 24.0347 44.5014 24 44.5ZM34 44.5C31.2333 44.5 28.8753 43.5247 26.926 41.5741C24.9767 39.6234 24.0013 37.2654 24 34.5C24 31.7334 24.9753 29.3754 26.926 27.426C28.8767 25.4767 31.2347 24.5014 34 24.5C36.7667 24.5 39.1253 25.4754 41.076 27.426C43.0267 29.3767 44.0013 31.7347 44 34.5C44 37.2667 43.0247 39.6254 41.074 41.576C39.1233 43.5267 36.7653 44.5014 34 44.5Z" fill="#396C92"/>
</g>
</svg>
