<svg width="25" height="24" viewBox="0 0 25 24" fill="none" xmlns="http://www.w3.org/2000/svg">
<g id="mingcute:arrow-left-fill" clip-path="url(#clip0_109_10947)">
<g id="Group">
<path id="Vector" d="M3.78292 10.94C3.50202 11.2212 3.34424 11.6025 3.34424 12C3.34424 12.3975 3.50202 12.7787 3.78292 13.06L9.43892 18.718C9.57825 18.8573 9.74366 18.9679 9.92571 19.0433C10.1078 19.1187 10.3029 19.1575 10.4999 19.1575C10.697 19.1575 10.8921 19.1187 11.0741 19.0433C11.2562 18.9679 11.4216 18.8573 11.5609 18.718C11.7003 18.5787 11.8108 18.4133 11.8862 18.2312C11.9616 18.0492 12.0004 17.854 12.0004 17.657C12.0004 17.46 11.9616 17.2648 11.8862 17.0828C11.8108 16.9007 11.7003 16.7353 11.5609 16.596L8.46492 13.5H19.9999C20.3977 13.5 20.7793 13.342 21.0606 13.0607C21.3419 12.7794 21.4999 12.3978 21.4999 12C21.4999 11.6022 21.3419 11.2206 21.0606 10.9393C20.7793 10.658 20.3977 10.5 19.9999 10.5H8.46492L11.5609 7.404C11.8422 7.1226 12.0001 6.741 12 6.34315C12 5.94529 11.8418 5.56376 11.5604 5.2825C11.279 5.00124 10.8974 4.84328 10.4996 4.84337C10.1017 4.84347 9.72018 5.0016 9.43892 5.283L3.78292 10.94Z" fill="black"/>
</g>
</g>
<defs>
<clipPath id="clip0_109_10947">
<rect width="24" height="24" fill="white" transform="translate(0.5)"/>
</clipPath>
</defs>
</svg>
