<svg width="24" height="24" viewBox="0 0 24 24" fill="none" xmlns="http://www.w3.org/2000/svg">
<g id="basil:file-solid">
<path id="Vector" d="M14 2.25C14.0663 2.25 14.1299 2.27634 14.1768 2.32322C14.2237 2.37011 14.25 2.4337 14.25 2.5V8.147C14.25 8.561 14.586 8.897 15 8.897H19.5C19.5663 8.897 19.6299 8.92334 19.6768 8.97022C19.7237 9.01711 19.75 9.0807 19.75 9.147V19C19.75 19.7293 19.4603 20.4288 18.9445 20.9445C18.4288 21.4603 17.7293 21.75 17 21.75H7C6.27065 21.75 5.57118 21.4603 5.05546 20.9445C4.53973 20.4288 4.25 19.7293 4.25 19V5C4.25 4.27065 4.53973 3.57118 5.05546 3.05546C5.57118 2.53973 6.27065 2.25 7 2.25H14Z" fill="#C7004E"/>
<path id="Vector_2" d="M16.086 2.63845C15.943 2.52345 15.75 2.64044 15.75 2.82444V7.14744C15.75 7.28544 15.862 7.39744 16 7.39744H19.298C19.416 7.39744 19.49 7.27345 19.422 7.17744L16.408 2.98045C16.3165 2.85248 16.2082 2.73744 16.086 2.63845Z" fill="#C7004E"/>
</g>
</svg>
