<svg width="48" height="48" viewBox="0 0 48 48" fill="none" xmlns="http://www.w3.org/2000/svg">
<g id="icon" clip-path="url(#clip0_109_6657)">
<g id="Group">
<path id="Vector" d="M24 4.00006C35.046 4.00006 44 12.9541 44 24.0001C44.0025 27.0028 43.3277 29.9675 42.0257 32.6733C40.7237 35.3791 38.8281 37.7564 36.48 39.6281L36.002 40.0001H40C40.5098 40.0006 41.0001 40.1958 41.3707 40.5458C41.7414 40.8957 41.9645 41.374 41.9943 41.8829C42.0242 42.3917 41.8587 42.8928 41.5315 43.2837C41.2043 43.6746 40.7402 43.9259 40.234 43.9861L40 44.0001H24C12.954 44.0001 4 35.0461 4 24.0001C4 12.9541 12.954 4.00006 24 4.00006ZM24 8.00006C19.7565 8.00006 15.6869 9.68577 12.6863 12.6864C9.68571 15.6869 8 19.7566 8 24.0001C8 28.2435 9.68571 32.3132 12.6863 35.3138C15.6869 38.3144 19.7565 40.0001 24 40.0001C28.2435 40.0001 32.3131 38.3144 35.3137 35.3138C38.3143 32.3132 40 28.2435 40 24.0001C40 19.7566 38.3143 15.6869 35.3137 12.6864C32.3131 9.68577 28.2435 8.00006 24 8.00006ZM24 28.0001C25.0609 28.0001 26.0783 28.4215 26.8284 29.1716C27.5786 29.9218 28 30.9392 28 32.0001C28 33.0609 27.5786 34.0783 26.8284 34.8285C26.0783 35.5786 25.0609 36.0001 24 36.0001C22.9391 36.0001 21.9217 35.5786 21.1716 34.8285C20.4214 34.0783 20 33.0609 20 32.0001C20 30.9392 20.4214 29.9218 21.1716 29.1716C21.9217 28.4215 22.9391 28.0001 24 28.0001ZM16 20.0001C17.0609 20.0001 18.0783 20.4215 18.8284 21.1716C19.5786 21.9218 20 22.9392 20 24.0001C20 25.0609 19.5786 26.0783 18.8284 26.8285C18.0783 27.5786 17.0609 28.0001 16 28.0001C14.9391 28.0001 13.9217 27.5786 13.1716 26.8285C12.4214 26.0783 12 25.0609 12 24.0001C12 22.9392 12.4214 21.9218 13.1716 21.1716C13.9217 20.4215 14.9391 20.0001 16 20.0001ZM32 20.0001C33.0609 20.0001 34.0783 20.4215 34.8284 21.1716C35.5786 21.9218 36 22.9392 36 24.0001C36 25.0609 35.5786 26.0783 34.8284 26.8285C34.0783 27.5786 33.0609 28.0001 32 28.0001C30.9391 28.0001 29.9217 27.5786 29.1716 26.8285C28.4214 26.0783 28 25.0609 28 24.0001C28 22.9392 28.4214 21.9218 29.1716 21.1716C29.9217 20.4215 30.9391 20.0001 32 20.0001ZM24 12.0001C25.0609 12.0001 26.0783 12.4215 26.8284 13.1716C27.5786 13.9218 28 14.9392 28 16.0001C28 17.0609 27.5786 18.0783 26.8284 18.8285C26.0783 19.5786 25.0609 20.0001 24 20.0001C22.9391 20.0001 21.9217 19.5786 21.1716 18.8285C20.4214 18.0783 20 17.0609 20 16.0001C20 14.9392 20.4214 13.9218 21.1716 13.1716C21.9217 12.4215 22.9391 12.0001 24 12.0001Z" fill="#76BCFF"/>
</g>
</g>
<defs>
<clipPath id="clip0_109_6657">
<rect width="48" height="48" fill="white"/>
</clipPath>
</defs>
</svg>
