<svg width="24" height="24" viewBox="0 0 24 24" fill="none" xmlns="http://www.w3.org/2000/svg">
<g id="ci:checkbox-check">
<path id="Vector" d="M19.1434 5.55424L17.7963 4.6394C17.6175 4.51902 17.3983 4.47411 17.1865 4.51445C16.9747 4.55478 16.7874 4.67709 16.6653 4.85479L10.0708 14.5803L7.03963 11.5491C6.88649 11.3976 6.67978 11.3127 6.46439 11.3127C6.24899 11.3127 6.04228 11.3976 5.88914 11.5491L4.73865 12.7018C4.66299 12.7774 4.60298 12.8671 4.56203 12.9659C4.52108 13.0647 4.5 13.1705 4.5 13.2775C4.5 13.3844 4.52108 13.4903 4.56203 13.589C4.60298 13.6878 4.66299 13.7775 4.73865 13.8531L9.3984 18.5151C9.66032 18.7755 10.0701 18.9766 10.4393 18.9766C10.8086 18.9766 11.1808 18.744 11.4202 18.3958L19.3603 6.68372C19.4811 6.50509 19.526 6.28587 19.4854 6.07414C19.4447 5.8624 19.3218 5.67543 19.1434 5.55424Z" fill="#396C92"/>
</g>
</svg>
