<svg width="24" height="24" viewBox="0 0 24 24" fill="none" xmlns="http://www.w3.org/2000/svg">
<g id="fa:close">
<path id="Vector" d="M22 18.0943C22 18.5432 21.8429 18.9248 21.5286 19.2391L19.2391 21.5286C18.9248 21.8429 18.5432 22 18.0943 22C17.6453 22 17.2637 21.8429 16.9495 21.5286L12 16.5791L7.05051 21.5286C6.73625 21.8429 6.35466 22 5.90572 22C5.45679 22 5.0752 21.8429 4.76094 21.5286L2.47138 19.2391C2.15713 18.9248 2 18.5432 2 18.0943C2 17.6453 2.15713 17.2637 2.47138 16.9495L7.42088 12L2.47138 7.05051C2.15713 6.73625 2 6.35466 2 5.90572C2 5.45679 2.15713 5.0752 2.47138 4.76094L4.76094 2.47138C5.0752 2.15713 5.45679 2 5.90572 2C6.35466 2 6.73625 2.15713 7.05051 2.47138L12 7.42088L16.9495 2.47138C17.2637 2.15713 17.6453 2 18.0943 2C18.5432 2 18.9248 2.15713 19.2391 2.47138L21.5286 4.76094C21.8429 5.0752 22 5.45679 22 5.90572C22 6.35466 21.8429 6.73625 21.5286 7.05051L16.5791 12L21.5286 16.9495C21.8429 17.2637 22 17.6453 22 18.0943Z" fill="black"/>
</g>
</svg>
