<svg width="48" height="48" viewBox="0 0 48 48" fill="none" xmlns="http://www.w3.org/2000/svg">
<g id="mdi:document-sign">
<path id="Vector" d="M39.4 25.8001L28 37.2001H23.4V32.6001L34.8 21.2001L39.4 25.8001ZM46.2 24.2001C46.2 24.8001 45.6 25.4001 45 26.0001L40 31.0001L38.2 29.2001L43.4 24.0001L42.2 22.8001L40.8 24.2001L36.2 19.6001L40.6 15.4001C41 15.0001 41.8 15.0001 42.4 15.4001L45.2 18.2001C45.6 18.6001 45.6 19.4001 45.2 20.0001C44.8 20.4001 44.4 20.8001 44.4 21.2001C44.4 21.6001 44.8 22.0001 45.2 22.4001C45.8 23.0001 46.4 23.6001 46.2 24.2001ZM6 40.0001V8.00006H20V18.0001H30V21.0001L34 17.0001V16.0001L22 4.00006H6C3.8 4.00006 2 5.80006 2 8.00006V40.0001C2 42.2001 3.8 44.0001 6 44.0001H30C32.2 44.0001 34 42.2001 34 40.0001H6ZM22 34.2001C21.6 34.2001 21.2 34.4001 21 34.4001L20 30.0001H17L12.8 33.4001L14 28.0001H11L9 38.0001H12L17.8 32.8001L19 37.4001H21L22 37.2001V34.2001Z" fill="#4EAD22"/>
</g>
</svg>
