<svg width="33" height="32" viewBox="0 0 33 32" fill="none" xmlns="http://www.w3.org/2000/svg">
<g id="icon">
<path id="Vector" d="M16.5 12C15.4413 12.007 14.4279 12.4307 13.6793 13.1793C12.9307 13.9279 12.507 14.9413 12.5 16C12.5 18.1893 14.3107 20 16.5 20C18.688 20 20.5 18.1893 20.5 16C20.5 13.812 18.688 12 16.5 12Z" fill="black"/>
<path id="Vector_2" d="M16.5001 6.66666C6.32273 6.66666 3.26406 15.4893 3.23606 15.5787L3.09473 16L3.23473 16.4213C3.26406 16.5107 6.32273 25.3333 16.5001 25.3333C26.6774 25.3333 29.7361 16.5107 29.7641 16.4213L29.9054 16L29.7654 15.5787C29.7361 15.4893 26.6774 6.66666 16.5001 6.66666ZM16.5001 22.6667C9.36539 22.6667 6.60139 17.5387 5.93206 16C6.60406 14.456 9.36939 9.33332 16.5001 9.33332C23.6347 9.33332 26.3987 14.4613 27.0681 16C26.3961 17.544 23.6307 22.6667 16.5001 22.6667Z" fill="black"/>
</g>
</svg>

