<svg width="25" height="24" viewBox="0 0 25 24" fill="none" xmlns="http://www.w3.org/2000/svg">
<g id="mingcute:arrow-left-fill" clip-path="url(#clip0_109_11031)">
<g id="Group">
<path id="Vector" d="M21.2171 10.94C21.498 11.2213 21.6558 11.6025 21.6558 12C21.6558 12.3975 21.498 12.7788 21.2171 13.06L15.5611 18.718C15.4217 18.8573 15.2563 18.9679 15.0743 19.0433C14.8922 19.1187 14.6971 19.1575 14.5001 19.1575C14.303 19.1575 14.1079 19.1187 13.9259 19.0433C13.7438 18.9679 13.5784 18.8573 13.4391 18.718C13.2997 18.5787 13.1892 18.4133 13.1138 18.2312C13.0384 18.0492 12.9996 17.8541 12.9996 17.657C12.9996 17.46 13.0384 17.2648 13.1138 17.0828C13.1892 16.9008 13.2997 16.7353 13.4391 16.596L16.5351 13.5H5.00008C4.60226 13.5 4.22073 13.342 3.93942 13.0607C3.65812 12.7794 3.50008 12.3978 3.50008 12C3.50008 11.6022 3.65812 11.2207 3.93942 10.9394C4.22073 10.658 4.60226 10.5 5.00008 10.5H16.5351L13.4391 7.40401C13.1578 7.12262 12.9999 6.74102 13 6.34316C13 5.9453 13.1582 5.56377 13.4396 5.28251C13.721 5.00125 14.1026 4.84329 14.5004 4.84338C14.8983 4.84348 15.2798 5.00162 15.5611 5.28301L21.2171 10.94Z" fill="#C7004E"/>
</g>
</g>
<defs>
<clipPath id="clip0_109_11031">
<rect width="24" height="24" fill="white" transform="matrix(-1 0 0 1 24.5 0)"/>
</clipPath>
</defs>
</svg>
