<svg width="48" height="48" viewBox="0 0 48 48" fill="none" xmlns="http://www.w3.org/2000/svg">
<g id="material-symbols:health-and-safety-outline-rounded">
<path id="Vector" d="M21 26V29C21 29.5667 21.192 30.042 21.576 30.426C21.96 30.81 22.4347 31.0014 23 31H25C25.5667 31 26.042 30.8081 26.426 30.424C26.81 30.04 27.0013 29.5654 27 29V26H30C30.5667 26 31.042 25.8081 31.426 25.424C31.81 25.04 32.0013 24.5654 32 24V22C32 21.4334 31.808 20.958 31.424 20.574C31.04 20.19 30.5653 19.9987 30 20H27V17C27 16.4334 26.808 15.958 26.424 15.574C26.04 15.19 25.5653 14.9987 25 15H23C22.4333 15 21.958 15.192 21.574 15.576C21.19 15.96 20.9987 16.4347 21 17V20H18C17.4333 20 16.958 20.192 16.574 20.576C16.19 20.9601 15.9987 21.4347 16 22V24C16 24.5667 16.192 25.042 16.576 25.426C16.96 25.81 17.4347 26.0014 18 26H21ZM24 43.8C23.7667 43.8 23.55 43.7834 23.35 43.75C23.15 43.7167 22.95 43.6667 22.75 43.6C18.25 42.1 14.6667 39.3247 12 35.274C9.33333 31.2234 8 26.8654 8 22.2001V12.75C8 11.9167 8.242 11.1667 8.726 10.5C9.21 9.83338 9.83467 9.35005 10.6 9.05005L22.6 4.55005C23.0667 4.38338 23.5333 4.30005 24 4.30005C24.4667 4.30005 24.9333 4.38338 25.4 4.55005L37.4 9.05005C38.1667 9.35005 38.792 9.83338 39.276 10.5C39.76 11.1667 40.0013 11.9167 40 12.75V22.2001C40 26.8667 38.6667 31.2254 36 35.2761C33.3333 39.3267 29.75 42.1014 25.25 43.6C25.05 43.6667 24.85 43.7167 24.65 43.75C24.45 43.7834 24.2333 43.8 24 43.8ZM24 39.8C27.4667 38.7001 30.3333 36.5 32.6 33.2001C34.8667 29.9001 36 26.2334 36 22.2001V12.75L24 8.25005L12 12.75V22.2001C12 26.2334 13.1333 29.9001 15.4 33.2001C17.6667 36.5 20.5333 38.7001 24 39.8Z" fill="#FF529B"/>
</g>
</svg>
