<svg width="100" height="55" viewBox="0 0 100 55" fill="none" xmlns="http://www.w3.org/2000/svg">
<g clip-path="url(#clip0_109_7184)">
<path d="M15.0023 32.8039V30.9107H14.348C13.5824 30.9107 13.3921 30.5859 13.3921 29.9548V20.3167H14.7007V18.4234H7.9536V20.3167H8.60789C9.37819 20.3167 9.56845 20.6415 9.56845 21.2726V24.377H5.45708V20.3167H6.76566V18.4234H0V20.3167H0.672854C1.44316 20.3167 1.62877 20.6415 1.62877 21.2726V30.9107H0.324826V32.8039H7.06729V30.9107H6.41299C5.64269 30.9107 5.45708 30.5859 5.45708 29.9548V26.5487H9.56845V30.9107H8.25986V32.8039H15.0023ZM26.181 32.8039V31.1937H25.3643C24.9234 31.1937 24.6914 31.0081 24.6914 30.5394V25.8016C24.6914 22.8132 22.7749 21.8109 20.051 21.8109C18.7536 21.8201 17.4665 22.0427 16.2413 22.4698V24.4513C17.2895 24.0009 18.4141 23.7552 19.5545 23.7274C20.5336 23.7274 21.0951 24.1497 21.0951 25.1195V25.7738C17.6659 25.8434 15.239 27.2216 15.239 29.6717C15.239 32.1218 16.8724 33.1009 18.6914 33.1009C19.8142 33.0971 20.8987 32.6922 21.7494 31.9594C22.0278 32.5673 22.7053 32.7993 23.4988 32.7993L26.181 32.8039ZM21.0766 30.2796C20.7388 30.5296 20.3319 30.669 19.9118 30.6787C19.7543 30.69 19.596 30.6702 19.4462 30.6204C19.2963 30.5706 19.1577 30.4917 19.0383 30.3883C18.9189 30.2848 18.8211 30.1589 18.7504 30.0176C18.6798 29.8763 18.6376 29.7225 18.6264 29.565C18.6218 29.5094 18.6218 29.4535 18.6264 29.3979C18.6264 28.3678 19.5545 27.5418 21.0766 27.435V30.2796ZM32.5754 32.8039V31.1937H32.1114C31.5731 31.1937 31.3179 31.0777 31.3179 30.5162V18.9432C31.3179 18.4049 31.0626 18.2425 30.4316 18.2425C29.5916 18.2425 28.1903 18.4049 25.9954 18.4049L26.3248 20.0383H27.7169V31.1752H26.5476V32.7854L32.5754 32.8039ZM39.1137 32.8039V31.1937H38.6497C38.1114 31.1937 37.8561 31.0777 37.8561 30.5162V18.9432C37.8561 18.4049 37.6009 18.2425 36.9698 18.2425C36.1299 18.2425 34.7285 18.4049 32.5336 18.4049L32.8631 20.0383H34.2552V31.1752H33.0858V32.7854L39.1137 32.8039ZM50.1207 32.8039V31.1937H49.3039C48.8399 31.1937 48.6264 31.0081 48.6264 30.5394V25.8016C48.6264 22.8132 46.7146 21.8109 43.9861 21.8109C42.6962 21.8201 41.4167 22.0428 40.1995 22.4698V24.4513C41.2477 24.0009 42.3723 23.7552 43.5128 23.7274C44.4919 23.7274 45.0534 24.1497 45.0534 25.1195V25.7738C41.6195 25.8434 39.1926 27.2216 39.1926 29.6717C39.1926 32.1218 40.8353 33.1056 42.645 33.1056C43.7691 33.1012 44.8549 32.6965 45.7077 31.964C45.9861 32.5719 46.6636 32.8039 47.4571 32.8039H50.1207ZM45.0116 30.2796C44.6724 30.5302 44.2639 30.6696 43.8422 30.6787C43.6853 30.69 43.5276 30.6704 43.3783 30.6208C43.229 30.5712 43.0909 30.4926 42.972 30.3896C42.853 30.2866 42.7555 30.1612 42.6851 30.0205C42.6147 29.8798 42.5727 29.7266 42.5615 29.5696C42.5569 29.5125 42.5569 29.4551 42.5615 29.3979C42.5615 28.3678 43.4896 27.5418 45.0116 27.435V30.2796ZM69.5313 32.8039V31.1937H69.0673C68.529 31.1937 68.2738 31.0963 68.2738 30.5162V25.3562C68.3063 24.8768 68.2407 24.3959 68.0812 23.9427C67.9216 23.4896 67.6713 23.0737 67.3457 22.7204C66.6753 22.098 65.7868 21.7646 64.8724 21.7923C63.5432 21.7981 62.2627 22.2937 61.2761 23.1845C61.164 22.9993 61.023 22.8332 60.8585 22.6926C60.1858 22.0708 59.2961 21.7376 58.3805 21.7645C57.2467 21.8026 56.1572 22.2137 55.2807 22.9339V22.5858C55.2807 22.0476 55.0255 21.8852 54.3944 21.8852C53.5545 21.8852 52.1531 22.0476 49.9629 22.0476L50.2877 23.681H51.6798V31.1056H50.464V32.7158H56.3944V31.1937H56.1485C55.6148 31.1937 55.355 31.0777 55.355 30.5162V24.9478C55.8138 24.4888 56.4282 24.2189 57.0766 24.1914C57.8237 24.1914 58.2691 24.6091 58.2691 25.4954V31.1937H57.29V32.8039H62.9838V31.1937H62.645C62.1067 31.1937 61.8515 31.0963 61.8515 30.5162V25.3562C61.8515 25.2169 61.8515 25.0777 61.8515 24.9385C62.3061 24.4746 62.9238 24.2066 63.5731 24.1914C64.3202 24.1914 64.761 24.6091 64.761 25.4954V31.1937H63.7587V32.8039H69.5313Z" fill="#B6144E"/>
<path d="M12.4316 12.029C12.4382 11.5078 12.336 10.9909 12.1315 10.5115C11.9269 10.0321 11.6245 9.60063 11.2436 9.24478C10.663 8.76061 10.018 8.35927 9.32715 8.05221L7.55453 7.2355C6.10673 6.55801 5.31323 6.07077 5.31323 5.20766C5.31323 4.442 6.08353 3.90835 7.03945 3.90835C7.65532 3.90017 8.24993 4.13335 8.69606 4.55801C9.05398 4.95143 9.30344 5.43117 9.41996 5.95012L9.61021 6.69258C9.62669 6.85556 9.70635 7.0056 9.83212 7.11056C9.95789 7.21551 10.1198 7.26703 10.2831 7.25406H11.522V1.73202H9.55917L9.46636 2.45592C8.59932 1.75091 7.50104 1.39364 6.38516 1.4536C3.7123 1.4536 1.48492 3.11021 1.48492 5.88979C1.48492 7.70882 2.55685 9.17982 4.79815 10.1125L6.52437 10.8364C7.87936 11.3979 8.46404 11.8387 8.46404 12.6926C8.46256 12.971 8.35464 13.2383 8.16242 13.4397C7.74576 13.8094 7.20154 14.0025 6.64502 13.978C5.99662 14.0247 5.35557 13.8167 4.85816 13.3981C4.36075 12.9796 4.04622 12.3835 3.98144 11.7367L3.88864 11.2262C3.79583 10.6647 3.58701 10.5487 3.00233 10.5487H1.78655V16.1172H3.74943L3.88864 15.3005C4.79328 16.0291 5.9244 16.4182 7.08585 16.4002C10.6589 16.4002 12.4316 14.5441 12.4316 12.0383V12.029ZM25.522 16.1079V14.5023H25.058C24.5197 14.5023 24.2645 14.4049 24.2645 13.8248V8.66474C24.2645 7.47216 23.9397 6.59049 23.3364 6.029C22.6685 5.41623 21.7878 5.08826 20.8817 5.11485C19.7121 5.1412 18.5856 5.56139 17.6845 6.30743V2.2703C17.6845 1.73202 17.4292 1.58817 16.7981 1.58817C15.9582 1.58817 14.5568 1.75058 12.362 1.75058L12.6868 3.38399H14.0789V14.5209H12.8724V16.1265H18.8724V14.5023H18.478C17.9397 14.5023 17.6845 14.3863 17.6845 13.8248V8.25638C18.1591 7.78825 18.791 7.51364 19.4571 7.48608C20.2042 7.48608 20.6729 7.88051 20.6729 8.79003V14.5023H19.6659V16.1079H25.522ZM35.7309 10.5394C35.7309 7.5232 34.0278 5.11485 30.8306 5.11485C27.4942 5.11485 25.4385 7.56961 25.4385 10.8132C25.4385 14.1729 27.3318 16.4374 30.7842 16.4374C32.4349 16.4416 34.0357 15.8724 35.3132 14.8271L34.3852 13.3097C33.5609 13.9056 32.5716 14.23 31.5545 14.2378C30.0603 14.2378 29.2343 13.1195 29.1972 11.3469H35.6613C35.6999 11.0765 35.7155 10.8032 35.7077 10.5302L35.7309 10.5394ZM32.3248 9.25406V9.74594H29.2343C29.2807 8.73898 29.5824 7.12877 30.891 7.12877C32.1067 7.12877 32.2831 8.41416 32.2831 9.25406H32.3248ZM40.3712 4.34455C40.3712 3.27262 41.0255 2.95244 41.935 2.95244C42.5231 2.95726 43.1064 3.05917 43.6613 3.25406V1.17518C42.7457 0.844362 41.7809 0.670229 40.8074 0.660095C38.3573 0.660095 36.8167 1.84803 36.8167 4.23318C36.8365 4.64594 36.9407 5.05025 37.123 5.42112H35.7633V7.05453H37.3736V14.4791H36.1624V16.0847H42.2274V14.5023H41.7633C41.2251 14.5023 40.9698 14.3121 40.9698 13.8248V7.05453H43.42L43.0951 5.42112H40.7749C40.5349 5.11117 40.3942 4.7359 40.3712 4.34455ZM56.8585 2.68794C56.8585 1.54641 55.9304 0.868912 54.8538 0.868912C53.7773 0.868912 52.8446 1.54641 52.8446 2.68794C52.8446 3.82947 53.7726 4.5116 54.8538 4.5116C55.935 4.5116 56.8585 3.83411 56.8585 2.68794ZM48.5058 4.34455C48.485 4.18244 48.4963 4.01781 48.5392 3.86009C48.582 3.70236 48.6555 3.55463 48.7555 3.42534C48.8555 3.29605 48.98 3.18773 49.1219 3.10659C49.2638 3.02544 49.4202 2.97306 49.5824 2.95244C49.6871 2.93852 49.7932 2.93852 49.8979 2.95244C50.5411 2.97185 51.1783 3.08119 51.7912 3.27726L52.0928 1.19838C51.0813 0.864307 50.0256 0.682885 48.9606 0.660095C46.348 0.660095 44.9698 1.98724 44.9698 4.13573C44.9893 4.57465 45.0753 5.00807 45.2251 5.42112H43.6195L43.949 7.05453H45.3411V14.4791H44.1531V16.0847H50.1856V14.5023H49.7216C49.1833 14.5023 48.9281 14.3121 48.9281 13.8248V7.05453H53.1972V14.4791H52.0186V16.0847H58.051V14.5023H57.587C57.0534 14.5023 56.7935 14.3863 56.7935 13.8248V5.9362C56.7935 5.39791 56.5383 5.2355 55.9072 5.2355C55.0673 5.2355 53.2251 5.39791 51.0534 5.39791H48.7332C48.5894 5.05666 48.5107 4.69153 48.5012 4.32135L48.5058 4.34455ZM68.4594 10.5348C68.4594 7.5232 66.7796 5.11485 63.5824 5.11485C60.2459 5.11485 58.1903 7.56961 58.1903 10.8132C58.2367 14.1729 60.1253 16.4374 63.5731 16.4374C65.2232 16.4385 66.8231 15.8697 68.1021 14.8271L67.174 13.3097C66.3554 13.9132 65.3695 14.2472 64.3527 14.2657C62.8585 14.2657 62.0325 13.1473 61.9954 11.3747H68.4594C68.4981 11.1043 68.5136 10.8311 68.5058 10.558L68.4594 10.5348ZM65.0534 9.24942V9.7413H62.0418C62.0882 8.73434 62.3898 7.12413 63.6984 7.12413C64.9095 7.12413 65.0905 8.40952 65.0905 9.24942H65.0534ZM74.9142 16.1079V14.5023H74.4501C73.9165 14.5023 73.6566 14.3863 73.6566 13.8248V2.2703C73.6566 1.73202 73.4014 1.56961 72.7703 1.56961C71.9304 1.56961 70.529 1.73202 68.3341 1.73202L68.6775 3.36543H70.0696V14.5023H68.8538V16.1079H74.9142ZM86.8028 16.1079V14.5023H86.1253C86.0436 14.5185 85.9595 14.5183 85.8779 14.5018C85.7963 14.4854 85.7188 14.4529 85.6497 14.4063C85.5807 14.3597 85.5216 14.2999 85.4758 14.2304C85.43 14.1609 85.3984 14.083 85.3828 14.0012C85.3689 13.9276 85.3689 13.852 85.3828 13.7784V2.2703C85.3828 1.73202 85.1276 1.56961 84.4965 1.56961C83.6566 1.56961 82.2552 1.73202 80.0603 1.73202L80.3898 3.36543H81.7819V5.44432C81.1849 5.23569 80.5581 5.12444 79.9258 5.11485C77.406 5.11485 75.0023 6.971 75.0023 10.6833C75.0023 14.1821 76.7981 16.4234 79.7633 16.4234C80.8252 16.4369 81.8523 16.0453 82.6357 15.3283C82.9374 15.8852 83.6613 16.1172 84.4316 16.1172L86.8028 16.1079ZM81.7587 13.8248C81.4188 14.1086 80.9903 14.2645 80.5476 14.2657C79.6195 14.2657 78.6914 13.4722 78.6914 10.7204C78.6914 7.82483 79.6473 7.05453 80.58 7.05453C80.9849 7.05347 81.3842 7.14891 81.7448 7.33295V13.8295L81.7587 13.8248Z" fill="#B6144E"/>
<path d="M14.2923 36.5858V34.6926H7.82829V36.5858H8.45474C9.22505 36.5858 9.4385 36.8411 9.4385 37.5418V44.3538C9.48019 44.9739 9.34159 45.5927 9.03943 46.1357C8.8655 46.3918 8.62737 46.5978 8.34887 46.733C8.07036 46.8681 7.76124 46.9278 7.45242 46.906C7.15384 46.9039 6.85971 46.8334 6.59265 46.6998C6.32558 46.5663 6.09267 46.3733 5.91182 46.1357C5.49419 45.5046 5.44778 44.8503 5.44778 43.2169V36.5858H6.77493V34.6926H0.0324707V36.5858H0.658921C1.43386 36.5858 1.64268 36.8643 1.64268 37.5418V43.7506C1.64268 45.5232 2.01391 47.0406 3.20648 48.0661C4.1624 48.8828 5.6798 49.3283 7.38282 49.3283C9.3689 49.3283 10.9327 48.6508 11.819 47.6253C12.7053 46.5998 12.993 45.152 12.993 43.6114V36.5858H14.2923ZM26.9141 49.0731V47.4629H26.4501C25.9118 47.4629 25.6566 47.3654 25.6566 46.7854V41.6253C25.6891 41.146 25.6235 40.665 25.464 40.2119C25.3044 39.7587 25.0542 39.3428 24.7285 38.9896C24.0581 38.3672 23.1696 38.0338 22.2552 38.0615C21.0844 38.0886 19.9567 38.5086 19.0534 39.2541V38.9014C19.0534 38.3678 18.7981 38.2053 18.167 38.2053C17.3271 38.2053 15.9304 38.3678 13.7355 38.3678L14.0603 40.0012H15.4524V47.4258H14.2738V49.036H20.2274V47.4258H19.8747C19.3411 47.4258 19.0812 47.3051 19.0812 46.7483V41.1798C19.5731 40.7277 20.2137 40.4718 20.8817 40.4606C21.6288 40.4606 22.0928 40.855 22.0928 41.7645V47.4629H21.0209V49.0731H26.9141ZM33.5127 49.0731V47.4629H33.0487C32.5151 47.4629 32.2552 47.3422 32.2552 46.7854V38.8968C32.2552 38.3631 32 38.2007 31.3689 38.2007C30.529 38.2007 29.1276 38.3631 26.9373 38.3631L27.2622 39.9965H28.6543V47.4211H27.4524V49.0313L33.5127 49.0731ZM45.4756 40.0151L45.1508 38.3817H40.3063V40.0151H41.406L39.5499 45.4768L37.8933 40.9942C37.6844 40.4374 37.8237 40.0151 38.4547 40.0151H38.9188V38.3817H32.8631V40.0151H34.051L37.6473 49.0731H40.5615L43.6659 40.855C43.7189 40.5887 43.8723 40.353 44.0943 40.1967C44.3163 40.0403 44.5899 39.9753 44.8585 40.0151H45.4756ZM54.9327 43.4907C54.9327 40.4838 53.2482 38.0754 50.051 38.0754C46.7146 38.0754 44.6589 40.5302 44.6589 43.7738C44.6589 47.1334 46.5522 49.3747 50.0046 49.3747C51.6553 49.379 53.2561 48.8098 54.5336 47.7645L53.6056 46.2471C52.7852 46.8506 51.7978 47.1846 50.7796 47.203C49.2854 47.203 48.4594 46.0847 48.4223 44.3121H54.8909C54.9295 44.0401 54.945 43.7653 54.9373 43.4907H54.9327ZM51.5081 42.21V42.674H48.4733C48.5197 41.6717 48.826 40.0615 50.1346 40.0615C51.3457 40.0615 51.5267 41.3469 51.5267 42.1868L51.5081 42.21ZM63.7633 40.7158V38.7529C63.7633 38.2889 63.5267 38.0754 62.9652 38.0754C62.4246 38.0919 61.8943 38.2282 61.4128 38.4746C60.9314 38.7209 60.5106 39.0712 60.181 39.5V38.9153C60.181 38.3817 59.8979 38.2193 59.2947 38.2193C58.4547 38.2193 57.0534 38.3817 54.8585 38.3817L55.1879 40.0151H56.58V47.4397H55.3596V49.0499H61.3921V47.4397H60.9281C60.3898 47.4397 60.1346 47.319 60.1346 46.7622V41.4954C60.9561 40.9423 61.9287 40.657 62.9188 40.6787H63.7169L63.7633 40.7158ZM72.8538 46.1357C72.8538 44.4327 71.9257 43.5186 70.4223 42.8875L68.7656 42.1636C67.8097 41.7413 67.4617 41.4861 67.4617 40.9478C67.4617 40.4095 67.9953 39.9919 68.7424 39.9919C69.1639 39.9545 69.583 40.086 69.9075 40.3575C70.2321 40.629 70.4356 41.0182 70.4733 41.4397L70.5336 41.9594C70.6032 42.4234 70.7888 42.5905 71.3271 42.5905H72.2134V38.4142H70.9281L70.812 39.022C70.0747 38.3723 69.1112 38.0389 68.1299 38.094C66.0278 38.094 64.1392 39.3793 64.1392 41.4582C64.1392 43.2541 65.2343 44.2146 66.7285 44.7947L68.2134 45.3608C69.239 45.7552 69.5406 46.0151 69.5406 46.5487C69.5406 47.0824 69.0069 47.435 68.2134 47.435C67.0441 47.435 66.2274 46.855 66.0649 45.8295L65.9953 45.4072C65.9025 44.8689 65.7587 44.7993 65.1786 44.7993H64.2923V49.0731H65.5731L65.7355 48.3956C66.595 49.0622 67.6599 49.4084 68.7471 49.3747C71.0673 49.3747 72.8585 48.0429 72.8585 46.1543L72.8538 46.1357ZM79.4014 49.0545V47.4443H78.9373C78.4037 47.4443 78.1438 47.3237 78.1438 46.7668V38.8782C78.1438 38.3445 77.8886 38.1821 77.2575 38.1821C76.4176 38.1821 75.0162 38.3445 72.8213 38.3445L73.1508 39.978H74.5429V47.4026H73.3178V49.0128L79.4014 49.0545ZM86.7981 48.8643V46.8782C86.3382 47.0323 85.8583 47.1182 85.3735 47.1334C85.1241 47.1513 84.875 47.0941 84.6583 46.9692C84.4417 46.8444 84.2673 46.6575 84.1578 46.4327C83.9529 45.93 83.8656 45.3872 83.9025 44.8457V40.0151H86.3991L86.0742 38.3817H83.8561V35.5974L81.3132 35.9965C81.1693 36.003 81.0282 36.0381 80.898 36.0997C80.7678 36.1613 80.6511 36.2481 80.5548 36.3552C80.4585 36.4623 80.3845 36.5875 80.337 36.7235C80.2896 36.8595 80.2696 37.0036 80.2784 37.1473C80.2784 37.1752 80.2784 37.203 80.2784 37.2309V38.377H78.9791V40.0104H80.3062V44.7761C80.3062 46.7343 80.6589 47.7645 81.3364 48.442C82.0801 49.0967 83.0528 49.4303 84.0417 49.3701C84.9791 49.36 85.9091 49.2034 86.7981 48.906V48.8643ZM100 40.0151L99.6705 38.3817H93.7912V40.0151H94.9327V46.2239C94.4581 46.692 93.8261 46.9666 93.1601 46.9942C92.413 46.9942 91.9443 46.5951 91.9443 45.6856V38.9153C91.9443 38.3817 91.6891 38.2193 91.058 38.2193C90.2181 38.2193 88.8167 38.3817 86.6264 38.3817L86.9513 40.0151H88.3434V45.848C88.3124 46.3244 88.3787 46.8021 88.5382 47.2521C88.6978 47.702 88.9472 48.1148 89.2714 48.4652C89.9485 49.0767 90.8325 49.4084 91.7448 49.3933C92.9133 49.3657 94.0389 48.9475 94.942 48.2053V49.6253C94.9874 50.2347 94.8501 50.8438 94.5475 51.3747C94.1717 51.8666 93.4942 52.1497 92.5383 52.1497C91.5342 52.1385 90.5393 51.9565 89.5963 51.6114V53.8759C90.6537 54.1738 91.746 54.3298 92.8445 54.3399C95.8561 54.3399 97.5591 53.036 98.2134 51.2819C98.4917 50.2815 98.603 49.242 98.5429 48.2053V40.9014C98.5429 40.2471 98.8677 40.0151 99.406 40.0151H100Z" fill="#7A113D"/>
<path d="M32.3063 35.6624C32.3063 34.5162 31.3782 33.8387 30.3016 33.8387C30.0491 33.8197 29.7954 33.8526 29.5561 33.9353C29.3168 34.0179 29.0969 34.1487 28.91 34.3195C28.7231 34.4904 28.5731 34.6976 28.4693 34.9286C28.3655 35.1595 28.31 35.4092 28.3063 35.6624C28.3063 36.79 29.2343 37.4814 30.3156 37.4814C31.3968 37.4814 32.3202 36.8039 32.3202 35.6624H32.3063ZM78.2459 35.6624C78.2459 34.5162 77.3179 33.8387 76.2413 33.8387C75.1647 33.8387 74.246 34.5348 74.246 35.6624C74.246 36.79 75.174 37.4814 76.2552 37.4814C77.3364 37.4814 78.2459 36.8039 78.2459 35.6624Z" fill="#7A113D"/>
</g>
<defs>
<clipPath id="clip0_109_7184">
<rect width="100" height="53.6798" fill="white" transform="translate(0 0.660095)"/>
</clipPath>
</defs>
</svg>
