<svg width="24" height="24" viewBox="0 0 24 24" fill="none" xmlns="http://www.w3.org/2000/svg">
<g id="fluent:people-16-filled">
<path id="Vector" d="M12 8.25C12 9.24456 11.6049 10.1984 10.9017 10.9017C10.1984 11.6049 9.24456 12 8.25 12C7.25544 12 6.30161 11.6049 5.59835 10.9017C4.89509 10.1984 4.5 9.24456 4.5 8.25C4.5 7.25544 4.89509 6.30161 5.59835 5.59835C6.30161 4.89509 7.25544 4.5 8.25 4.5C9.24456 4.5 10.1984 4.89509 10.9017 5.59835C11.6049 6.30161 12 7.25544 12 8.25ZM17.25 12C18.0456 12 18.8087 11.6839 19.3713 11.1213C19.9339 10.5587 20.25 9.79565 20.25 9C20.25 8.20435 19.9339 7.44129 19.3713 6.87868C18.8087 6.31607 18.0456 6 17.25 6C16.4544 6 15.6913 6.31607 15.1287 6.87868C14.5661 7.44129 14.25 8.20435 14.25 9C14.25 9.79565 14.5661 10.5587 15.1287 11.1213C15.6913 11.6839 16.4544 12 17.25 12ZM15.75 15.891V15.75C15.7511 14.9384 15.4878 14.1486 15 13.5H19.9095C20.9235 13.5 21.747 14.322 21.747 15.3375C21.747 15.3375 21.747 18.75 17.247 18.75C16.35 18.75 15.6315 18.615 15.057 18.3975C15.4153 17.7409 15.643 17.0212 15.7275 16.278C15.7365 16.185 15.7425 16.1055 15.7455 16.0395L15.75 15.891ZM14.25 15.75C14.25 15.1533 14.0129 14.581 13.591 14.159C13.169 13.7371 12.5967 13.5 12 13.5H4.5C3.90326 13.5 3.33097 13.7371 2.90901 14.159C2.48705 14.581 2.25 15.1533 2.25 15.75V15.8625C2.25 15.8625 2.25 20.25 8.25 20.25C13.968 20.25 14.2365 16.266 14.25 15.891V15.75Z" fill="black"/>
</g>
</svg>
