<svg width="24" height="24" viewBox="0 0 24 24" fill="none" xmlns="http://www.w3.org/2000/svg">
<g id="icon">
<path id="Vector" d="M19.6429 9.9375H13.5357V3.75C13.5357 2.99074 12.928 2.375 12.1786 2.375H10.8214C10.072 2.375 9.46429 2.99074 9.46429 3.75V9.9375H3.35714C2.60775 9.9375 2 10.5532 2 11.3125V12.6875C2 13.4468 2.60775 14.0625 3.35714 14.0625H9.46429V20.25C9.46429 21.0093 10.072 21.625 10.8214 21.625H12.1786C12.928 21.625 13.5357 21.0093 13.5357 20.25V14.0625H19.6429C20.3923 14.0625 21 13.4468 21 12.6875V11.3125C21 10.5532 20.3923 9.9375 19.6429 9.9375Z" fill="black"/>
</g>
</svg>
