<svg width="49" height="49" viewBox="0 0 49 49" fill="none" xmlns="http://www.w3.org/2000/svg">
<g id="material-symbols:supervisor-account-outline-rounded">
<path id="Vector" d="M34.5 30.5C33.1 30.5 31.9167 30.0167 30.95 29.05C29.9833 28.0833 29.5 26.9 29.5 25.5C29.5 24.1 29.9833 22.9167 30.95 21.95C31.9167 20.9833 33.1 20.5 34.5 20.5C35.9 20.5 37.0833 20.9833 38.05 21.95C39.0167 22.9167 39.5 24.1 39.5 25.5C39.5 26.9 39.0167 28.0833 38.05 29.05C37.0833 30.0167 35.9 30.5 34.5 30.5ZM24.5 38.5V37.7C24.5 36.9 24.7087 36.1587 25.126 35.476C25.5433 34.7933 26.1347 34.3013 26.9 34C28.1 33.5 29.342 33.1253 30.626 32.876C31.91 32.6267 33.2013 32.5013 34.5 32.5C35.8 32.5 37.092 32.6253 38.376 32.876C39.66 33.1267 40.9013 33.5013 42.1 34C42.8667 34.3 43.4587 34.792 43.876 35.476C44.2933 36.16 44.5013 36.9013 44.5 37.7V38.5C44.5 39.0667 44.308 39.542 43.924 39.926C43.54 40.31 43.0653 40.5013 42.5 40.5H26.5C25.9333 40.5 25.4587 40.308 25.076 39.924C24.6933 39.54 24.5013 39.0653 24.5 38.5ZM20.5 24.5C18.3 24.5 16.4167 23.7167 14.85 22.15C13.2833 20.5833 12.5 18.7 12.5 16.5C12.5 14.3 13.2833 12.4167 14.85 10.85C16.4167 9.28333 18.3 8.5 20.5 8.5C22.7 8.5 24.5833 9.28333 26.15 10.85C27.7167 12.4167 28.5 14.3 28.5 16.5C28.5 18.7 27.7167 20.5833 26.15 22.15C24.5833 23.7167 22.7 24.5 20.5 24.5ZM4.5 34.9C4.5 33.7667 4.78333 32.7253 5.35 31.776C5.91667 30.8267 6.7 30.1013 7.7 29.6C9.7 28.6 11.7753 27.8333 13.926 27.3C16.0767 26.7667 18.268 26.5 20.5 26.5C21.6667 26.5 22.8333 26.6 24 26.8C25.1667 27 26.3333 27.2333 27.5 27.5L25.8 29.2L24.1 30.9C23.5 30.7333 22.9 30.6253 22.3 30.576C21.7 30.5267 21.1 30.5013 20.5 30.5C18.5667 30.5 16.6747 30.7333 14.824 31.2C12.9733 31.6667 11.1987 32.3333 9.5 33.2C9.16667 33.3667 8.91667 33.6 8.75 33.9C8.58333 34.2 8.5 34.5333 8.5 34.9V36.5H20.5V38.45C20.5 38.8833 20.5833 39.2753 20.75 39.626C20.9167 39.9767 21.15 40.268 21.45 40.5H8.5C7.4 40.5 6.45867 40.1087 5.676 39.326C4.89333 38.5433 4.50133 37.6013 4.5 36.5V34.9ZM20.5 20.5C21.6 20.5 22.542 20.1087 23.326 19.326C24.11 18.5433 24.5013 17.6013 24.5 16.5C24.5 15.4 24.1087 14.4587 23.326 13.676C22.5433 12.8933 21.6013 12.5013 20.5 12.5C19.4 12.5 18.4587 12.892 17.676 13.676C16.8933 14.46 16.5013 15.4013 16.5 16.5C16.5 17.6 16.892 18.542 17.676 19.326C18.46 20.11 19.4013 20.5013 20.5 20.5Z" fill="#4EAD22"/>
</g>
</svg>
