<svg width="48" height="48" viewBox="0 0 48 48" fill="none" xmlns="http://www.w3.org/2000/svg">
<g id="tabler:bulb">
<path id="Vector" d="M6 24.0001H8M24 6.00006V8.00006M40 24.0001H42M11.2 11.2001L12.6 12.6001M36.8 11.2001L35.4 12.6001M19.4 34.0001H28.6M18 32.0001C16.3209 30.7408 15.0807 28.9851 14.4549 26.9817C13.8291 24.9784 13.8495 22.8289 14.5132 20.8378C15.1769 18.8467 16.4502 17.1148 18.1529 15.8876C19.8556 14.6604 21.9012 14.0001 24 14.0001C26.0988 14.0001 28.1444 14.6604 29.8471 15.8876C31.5498 17.1148 32.8231 18.8467 33.4868 20.8378C34.1505 22.8289 34.1709 24.9784 33.5451 26.9817C32.9193 28.9851 31.6791 30.7408 30 32.0001C29.2191 32.773 28.6312 33.719 28.2837 34.7613C27.9363 35.8037 27.8391 36.9132 28 38.0001C28 39.0609 27.5786 40.0783 26.8284 40.8285C26.0783 41.5786 25.0609 42.0001 24 42.0001C22.9391 42.0001 21.9217 41.5786 21.1716 40.8285C20.4214 40.0783 20 39.0609 20 38.0001C20.1609 36.9132 20.0637 35.8037 19.7163 34.7613C19.3688 33.719 18.7809 32.773 18 32.0001Z" stroke="#EEB524" stroke-width="4" stroke-linecap="round" stroke-linejoin="round"/>
</g>
</svg>
